{
    "asset": {
        "copyright": "2020 (c) Adobe Inc.",
        "generator": "Adobe Dimension - 611127eacd250f22943d21b3c2c9dbaa3a0ef9a2",
        "version": "2.0"
    },
    "accessors": [
        {
            "bufferView": 0,
            "componentType": 5126,
            "count": 36,
            "type": "VEC3",
            "max": [
                0.3199999928474426,
                0.06300000101327896,
                0.125
            ],
            "min": [
                -0.3199999928474426,
                0.0,
                -0.125
            ]
        },
        {
            "bufferView": 1,
            "componentType": 5126,
            "count": 36,
            "type": "VEC3"
        },
        {
            "bufferView": 2,
            "componentType": 5126,
            "count": 36,
            "type": "VEC2"
        },
        {
            "bufferView": 3,
            "componentType": 5125,
            "count": 36,
            "type": "SCALAR",
            "max": [
                35.0
            ],
            "min": [
                0.0
            ]
        }
    ],
    "bufferViews": [
        {
            "buffer": 0,
            "byteOffset": 0,
            "byteLength": 432,
            "target": 34962
        },
        {
            "buffer": 0,
            "byteOffset": 432,
            "byteLength": 432,
            "target": 34962
        },
        {
            "buffer": 0,
            "byteOffset": 864,
            "byteLength": 288,
            "target": 34962
        },
        {
            "buffer": 0,
            "byteOffset": 1152,
            "byteLength": 144,
            "target": 34963
        }
    ],
    "buffers": [
        {
            "byteLength": 1296,
            "uri": "皮帶紙盒_binary.bin"
        }
    ],
    "cameras": [
        {
            "perspective": {
                "znear": 0.000013799550288240426,
                "yfov": 0.6024156808853149,
                "zfar": 2.0,
                "aspectRatio": 1.3333333730697632
            },
            "type": "perspective",
            "name": "render_camera"
        }
    ],
    "images": [
        {
            "name": "composited_baseColor_opacity",
            "uri": "皮帶紙盒_images\\composited_baseColor_opacity.png",
            "mimeType": "image/png"
        },
        {
            "name": "composited_roughness_composited_metallic",
            "uri": "皮帶紙盒_images\\composited_roughness_composited_metallic.png",
            "mimeType": "image/png"
        }
    ],
    "materials": [
        {
            "pbrMetallicRoughness": {
                "baseColorTexture": {
                    "index": 0
                },
                "metallicRoughnessTexture": {
                    "index": 1
                }
            },
            "alphaMode": "MASK",
            "name": "哑光",
            "doubleSided": true
        }
    ],
    "meshes": [
        {
            "primitives": [
                {
                    "attributes": {
                        "POSITION": 0,
                        "NORMAL": 1,
                        "TEXCOORD_0": 2
                    },
                    "indices": 3,
                    "material": 0
                }
            ]
        }
    ],
    "nodes": [
        {
            "translation": [
                0.5,
                0.29999998211860659,
                0.5
            ],
            "rotation": [
                -0.12059047073125839,
                0.379409521818161,
                0.04995020851492882,
                0.9159756302833557
            ],
            "scale": [
                1.0,
                1.0,
                0.9999999403953552
            ],
            "camera": 0,
            "name": "render_camera_n3d"
        },
        {
            "mesh": 0,
            "name": "立方体"
        }
    ],
    "samplers": [
        {},
        {}
    ],
    "scenes": [
        {
            "nodes": [
                0,
                1
            ],
            "name": "scene"
        }
    ],
    "textures": [
        {
            "name": "composited_baseColor_opacity",
            "sampler": 0,
            "source": 0
        },
        {
            "name": "composited_roughness_composited_metallic",
            "sampler": 1,
            "source": 1
        }
    ],
    "scene": 0
}