<svg id="圖層_1" data-name="圖層 1" xmlns="http://www.w3.org/2000/svg" viewBox="0 0 566.93 566.93"><defs><style>.cls-1{fill:#5eb640;fill-rule:evenodd;}</style></defs><path class="cls-1" d="M494.05,275l-14.46-4.08a4.24,4.24,0,0,1-2.86-3.47l-.72-7a4.16,4.16,0,0,1,2.14-3.92l13.39-6.61a3.74,3.74,0,0,0,1.89-3.89L491,234.36a3.83,3.83,0,0,0-3.29-2.86l-15-1a4.25,4.25,0,0,1-3.52-2.8L467.06,221a4.16,4.16,0,0,1,1.27-4.28l11.72-9.25a3.72,3.72,0,0,0,1.05-4.2l-4.79-10.86a3.84,3.84,0,0,0-3.81-2.11l-14.84,2.13a4.24,4.24,0,0,1-4-2l-3.52-6.16a4.15,4.15,0,0,1,.35-4.45L460,168.33a3.7,3.7,0,0,0,.15-4.31l-6.94-9.63a3.82,3.82,0,0,0-4.16-1.27L435,158.29a4.31,4.31,0,0,1-4.36-1.12L424.11,150a4.17,4.17,0,0,1-.64-4.42l6.8-13.34a3.71,3.71,0,0,0-.8-4.24l-8.89-7.86a3.8,3.8,0,0,0-4.34-.32L403.6,128a4.25,4.25,0,0,1-4.49-.14l-5.74-4.11a4.17,4.17,0,0,1-1.53-4.2l3.88-14.43a3.73,3.73,0,0,0-1.67-4l-10.33-5.85a3.81,3.81,0,0,0-4.31.58l-10.65,10.59a4.23,4.23,0,0,1-4.42.79l-6.49-2.82a4.17,4.17,0,0,1-2.37-3.78l.8-14.91a3.75,3.75,0,0,0-2.46-3.56L342.51,78.6a3.81,3.81,0,0,0-4.1,1.46l-8.23,12.59a4.26,4.26,0,0,1-4.16,1.7l-6.92-1.41a4.13,4.13,0,0,1-3.11-3.2l-2.31-14.8a3.73,3.73,0,0,0-3.14-3l-11.82-1.14A3.82,3.82,0,0,0,295,73.11l-5.44,14a4.25,4.25,0,0,1-3.72,2.52l-7,.06a4.15,4.15,0,0,1-3.71-2.49l-5.33-14A3.72,3.72,0,0,0,266.08,71l-11.8,1.31a3.82,3.82,0,0,0-3.15,3l-2.41,14.88a4.26,4.26,0,0,1-3.11,3.24l-6.88,1.51a4.18,4.18,0,0,1-4.14-1.68l-8.13-12.59a3.74,3.74,0,0,0-4.08-1.43L211.11,83a3.84,3.84,0,0,0-2.46,3.6l.73,15a4.28,4.28,0,0,1-2.38,3.82l-6.43,2.92a4.16,4.16,0,0,1-4.4-.78L185.63,96.93a3.73,3.73,0,0,0-4.28-.55l-10.24,6a3.83,3.83,0,0,0-1.66,4L173.28,121a4.24,4.24,0,0,1-1.54,4.22l-5.69,4.18a4.16,4.16,0,0,1-4.46.16l-12.51-8.18a3.72,3.72,0,0,0-4.31.34l-8.78,8a3.79,3.79,0,0,0-.79,4.27L142,147.41a4.19,4.19,0,0,1-.64,4.43s-1.36,1.43-2.92,3.21c-1.21,1.36-1.77,2-1.77,2a4.12,4.12,0,0,1-4.32,1.09l-14-5.44a3.73,3.73,0,0,0-4.14,1.23l-6.93,9.66a3.79,3.79,0,0,0,.12,4.35l9.41,11.73a4.24,4.24,0,0,1,.31,4.48l-3.52,6.13a4.18,4.18,0,0,1-4,2l-14.74-2.4a3.72,3.72,0,0,0-3.8,2.06L86.27,202.8a3.82,3.82,0,0,0,1,4.23l11.61,9.52a4.28,4.28,0,0,1,1.24,4.33L98,227.61a4.16,4.16,0,0,1-3.53,2.74l-14.91.72a3.72,3.72,0,0,0-3.28,2.81l-2.42,11.61a3.8,3.8,0,0,0,1.87,3.93l13.35,6.92a4.26,4.26,0,0,1,2.11,4l-.71,7a4.13,4.13,0,0,1-2.87,3.42l-14.47,3.79A3.72,3.72,0,0,0,70.49,278l0,11.86a3.83,3.83,0,0,0,2.64,3.46l14.52,4a4.26,4.26,0,0,1,2.88,3.45l.76,7a4.19,4.19,0,0,1-2.11,3.94L75.85,318.4A3.71,3.71,0,0,0,74,322.29L76.5,333.9a3.81,3.81,0,0,0,3.3,2.83l15,.89a4.26,4.26,0,0,1,3.53,2.78l2.19,6.74a4.17,4.17,0,0,1-1.24,4.29l-11.64,9.31a3.71,3.71,0,0,0-1,4.2l4.86,10.83a3.82,3.82,0,0,0,3.82,2.09l14.81-2.23a4.28,4.28,0,0,1,4,2l3.56,6.13a4.15,4.15,0,0,1-.32,4.45l-9.45,11.53a3.73,3.73,0,0,0-.12,4.32l7,9.58a3.81,3.81,0,0,0,4.17,1.24l14-5.25a4.24,4.24,0,0,1,4.36,1.1l4.75,5.24a4.18,4.18,0,0,1,.61,4.43l-6.86,13.23a3.71,3.71,0,0,0,.77,4.25l8.83,7.94a3.84,3.84,0,0,0,4.34.36l12.66-8.07a4.22,4.22,0,0,1,4.48.18l5.74,4.17a4.19,4.19,0,0,1,1.5,4.22l-4,14.33a3.73,3.73,0,0,0,1.64,4l10.29,5.93a3.82,3.82,0,0,0,4.32-.55l10.67-10.48a4.23,4.23,0,0,1,4.42-.77l6.52,2.9a4.15,4.15,0,0,1,2.34,3.8l-.89,14.82a3.72,3.72,0,0,0,2.44,3.57l11.29,3.66a3.83,3.83,0,0,0,4.11-1.44L235.66,474a4.25,4.25,0,0,1,4.17-1.67l7,1.48a4.13,4.13,0,0,1,3.09,3.22l2.2,14.71a3.73,3.73,0,0,0,3.12,3L267,495.94a3.81,3.81,0,0,0,3.72-2.26l5.5-13.92a4.28,4.28,0,0,1,3.74-2.51h7.1a4.15,4.15,0,0,1,3.69,2.52l5.22,14a3.71,3.71,0,0,0,3.67,2.27l11.8-1.24a3.82,3.82,0,0,0,3.18-3L317.13,477a4.25,4.25,0,0,1,3.14-3.21l7-1.46a4.14,4.14,0,0,1,4.13,1.69l8,12.57a3.72,3.72,0,0,0,4.06,1.45l11.29-3.67a3.82,3.82,0,0,0,2.48-3.58l-.62-14.93a4.26,4.26,0,0,1,2.41-3.79l6.51-2.88a4.16,4.16,0,0,1,4.4.81l10.4,10.59a3.73,3.73,0,0,0,4.28.58l10.29-5.92a3.83,3.83,0,0,0,1.69-4l-3.72-14.47a4.28,4.28,0,0,1,1.56-4.22l5.77-4.19a4.12,4.12,0,0,1,4.45-.13l12.4,8.23a3.74,3.74,0,0,0,4.31-.31l8.83-7.94a3.8,3.8,0,0,0,.82-4.27l-6.66-13.44a4.19,4.19,0,0,1,.67-4.43s1.94-2.06,3.79-4.15l1-1.1a4.09,4.09,0,0,1,4.31-1.08l13.87,5.49a3.75,3.75,0,0,0,4.16-1.2l7-9.59a3.82,3.82,0,0,0-.09-4.36l-9.28-11.74a4.24,4.24,0,0,1-.28-4.48l3.58-6.16a4.19,4.19,0,0,1,4-1.92l14.66,2.48a3.7,3.7,0,0,0,3.81-2l4.84-10.82a3.82,3.82,0,0,0-1-4.24l-11.5-9.55a4.25,4.25,0,0,1-1.21-4.33l2.22-6.77a4.13,4.13,0,0,1,3.53-2.72l14.86-.61a3.72,3.72,0,0,0,3.31-2.78l2.49-11.61a3.82,3.82,0,0,0-1.84-3.95l-13.27-7a4.29,4.29,0,0,1-2.09-4l.76-7a4.16,4.16,0,0,1,2.9-3.39l14.46-3.7a3.73,3.73,0,0,0,2.65-3.41l0-11.87a3.8,3.8,0,0,0-2.62-3.48M283.57,386.25A102.84,102.84,0,1,1,386.41,283.41,102.85,102.85,0,0,1,283.57,386.25"/></svg>