{
	"asset":{
		"version":"2.0",
		"generator":"Created using the official Cinema 4D glTF Exporter 1.000x284978"
	},
	"buffers":[{
		"uri":"data:application/octet-stream;base64,",
		"byteLength":72
	},
	{
		"uri":"data:application/octet-stream;base64,",
		"byteLength":180
	},
	{
		"uri":"data:application/octet-stream;base64,",
		"byteLength":25536
	},
	{
		"uri":"data:application/octet-stream;base64,",
		"byteLength":94696
	},
	{
		"uri":"data:application/octet-stream;base64,",
		"byteLength":289992
	}],
	"scenes":[{
		"nodes":[0,
		1]
	}],
	"nodes":[{
		"name":".1",
		"translation":[18.03089141845703,
		6.497509956359863,
		-24.08690643310547],
		"rotation":[0.03188556805253029,
		-0.9447323679924011,
		-0.09665998071432114,
		-0.31164219975471499],
		"scale":[1.0,
		1.0,
		1.0],
		"camera":0
	},
	{
		"name":"GCW-BS-6.25-38T-K01-20200615.SLDPRT",
		"translation":[0.0,
		0.0,
		0.0],
		"rotation":[0.0,
		0.0,
		0.39751607179641726,
		-0.9175952076911926],
		"scale":[1.0,
		1.0,
		1.0],
		"children":[2]
	},
	{
		"name":"Solid1",
		"children":[3,
		4,
		5]
	},
	{
		"name":"Solid1-Black.PBR",
		"mesh":0
	},
	{
		"name":"Solid1-Black.PBR",
		"mesh":1
	},
	{
		"name":"Solid1-Black.PBR",
		"mesh":2
	}],
	"meshes":[{
		"name":"Solid1-Black.PBR",
		"primitives":[{
			"attributes":{
				"POSITION":7,
				"NORMAL":8,
				"TEXCOORD_0":9
			},
			"indices":6,
			"material":0
		}]
	},
	{
		"name":"Solid1-Black.PBR",
		"primitives":[{
			"attributes":{
				"POSITION":11,
				"NORMAL":12,
				"TEXCOORD_0":13
			},
			"indices":10,
			"material":0
		}]
	},
	{
		"name":"Solid1-Black.PBR",
		"primitives":[{
			"attributes":{
				"POSITION":15,
				"NORMAL":16,
				"TEXCOORD_0":17
			},
			"indices":14,
			"material":0
		}]
	}],
	"accessors":[{
		"bufferView":0,
		"type":"SCALAR",
		"componentType":5126,
		"min":[0.0],
		"count":2,
		"byteOffset":0,
		"max":[3.0]
	},
	{
		"bufferView":0,
		"type":"VEC3",
		"componentType":5126,
		"min":[18.03089141845703,
		6.497509956359863,
		-24.08690643310547],
		"count":2,
		"byteOffset":8,
		"max":[18.03089141845703,
		6.497509956359863,
		-24.08690643310547]
	},
	{
		"bufferView":1,
		"type":"SCALAR",
		"componentType":5126,
		"min":[0.0],
		"count":2,
		"byteOffset":0,
		"max":[3.0]
	},
	{
		"bufferView":1,
		"type":"VEC4",
		"componentType":5126,
		"min":[-0.03188556805253029,
		0.9447323679924011,
		0.09665998071432114,
		0.31164219975471499],
		"count":2,
		"byteOffset":8,
		"max":[-0.03188556805253029,
		0.9447323679924011,
		0.09665998071432114,
		0.31164219975471499]
	},
	{
		"bufferView":2,
		"type":"SCALAR",
		"componentType":5126,
		"min":[0.0],
		"count":9,
		"byteOffset":0,
		"max":[3.0]
	},
	{
		"bufferView":2,
		"type":"VEC4",
		"componentType":5126,
		"min":[0.0,
		0.0,
		-1.0,
		-1.0],
		"count":9,
		"byteOffset":36,
		"max":[0.0,
		0.0,
		1.0,
		1.0]
	},
	{
		"bufferView":3,
		"type":"SCALAR",
		"componentType":5123,
		"min":[0],
		"count":1824,
		"byteOffset":0,
		"max":[683]
	},
	{
		"bufferView":4,
		"type":"VEC3",
		"componentType":5126,
		"min":[-7.497244834899902,
		-7.4952521324157719,
		-0.0949999988079071],
		"count":684,
		"byteOffset":0,
		"max":[7.497244834899902,
		7.4952521324157719,
		0.0949999988079071]
	},
	{
		"bufferView":4,
		"type":"VEC3",
		"componentType":5126,
		"min":[-0.9999688267707825,
		-0.9999688267707825,
		0.0],
		"count":684,
		"byteOffset":12,
		"max":[0.9999688267707825,
		0.9999688267707825,
		0.0]
	},
	{
		"bufferView":4,
		"type":"VEC2",
		"componentType":5126,
		"min":[0.0,
		-1.1683265201914862e-15],
		"count":684,
		"byteOffset":24,
		"max":[1.0,
		1.0]
	},
	{
		"bufferView":5,
		"type":"SCALAR",
		"componentType":5123,
		"min":[0],
		"count":5940,
		"byteOffset":0,
		"max":[2587]
	},
	{
		"bufferView":6,
		"type":"VEC3",
		"componentType":5126,
		"min":[-8.051435470581055,
		-8.02804946899414,
		-0.0949999988079071],
		"count":2588,
		"byteOffset":0,
		"max":[8.051435470581055,
		8.02804946899414,
		0.0949999988079071]
	},
	{
		"bufferView":6,
		"type":"VEC3",
		"componentType":5126,
		"min":[-1.0,
		-0.9999688267707825,
		-1.0],
		"count":2588,
		"byteOffset":12,
		"max":[0.9999688267707825,
		0.9999688267707825,
		1.0]
	},
	{
		"bufferView":6,
		"type":"VEC2",
		"componentType":5126,
		"min":[-6.072523126704477e-13,
		-3.3687663119133517e-13],
		"count":2588,
		"byteOffset":24,
		"max":[1.0,
		1.0]
	},
	{
		"bufferView":7,
		"type":"SCALAR",
		"componentType":5123,
		"min":[0],
		"count":22116,
		"byteOffset":0,
		"max":[7679]
	},
	{
		"bufferView":8,
		"type":"VEC3",
		"componentType":5126,
		"min":[-7.678896903991699,
		-7.672125339508057,
		-0.8100000619888306],
		"count":7680,
		"byteOffset":0,
		"max":[7.678896427154541,
		7.672125339508057,
		0.14000000059604646]
	},
	{
		"bufferView":8,
		"type":"VEC3",
		"componentType":5126,
		"min":[-1.0,
		-1.0,
		-1.0],
		"count":7680,
		"byteOffset":12,
		"max":[1.0,
		1.0,
		1.0]
	},
	{
		"bufferView":8,
		"type":"VEC2",
		"componentType":5126,
		"min":[-0.000005316190254234243,
		-1.2503291735299627e-9],
		"count":7680,
		"byteOffset":24,
		"max":[1.0000019073486329,
		1.0]
	}],
	"cameras":[{
		"type":"perspective",
		"perspective":{
			"znear":0.009999999776482582,
			"zfar":10000000000.0,
			"aspectRatio":1.7777777910232545,
			"yfov":0.5483348965644836
		}
	}],
	"bufferViews":[{
		"buffer":0,
		"byteOffset":0,
		"byteLength":32
	},
	{
		"buffer":0,
		"byteOffset":32,
		"byteLength":40
	},
	{
		"buffer":1,
		"byteOffset":0,
		"byteLength":180
	},
	{
		"buffer":2,
		"byteOffset":0,
		"byteLength":3648,
		"target":34963
	},
	{
		"buffer":2,
		"byteOffset":3648,
		"byteLength":21888,
		"target":34962,
		"byteStride":32
	},
	{
		"buffer":3,
		"byteOffset":0,
		"byteLength":11880,
		"target":34963
	},
	{
		"buffer":3,
		"byteOffset":11880,
		"byteLength":82816,
		"target":34962,
		"byteStride":32
	},
	{
		"buffer":4,
		"byteOffset":0,
		"byteLength":44232,
		"target":34963
	},
	{
		"buffer":4,
		"byteOffset":44232,
		"byteLength":245760,
		"target":34962,
		"byteStride":32
	}],
	"images":[{
		"uri":"data:image/jpeg;base64,"
	},
	{
		"uri":"data:image/jpeg;base64,"
	},
	{
		"uri":"data:image/jpeg;base64,"
	}],
	"samplers":[{
		"magFilter":9729,
		"minFilter":9729,
		"wrapS":10497,
		"wrapT":10497
	},
	{
		"magFilter":9729,
		"minFilter":9729,
		"wrapS":10497,
		"wrapT":10497
	},
	{
		"magFilter":9729,
		"minFilter":9729,
		"wrapS":10497,
		"wrapT":10497
	}],
	"textures":[{
		"sampler":0,
		"source":0
	},
	{
		"sampler":1,
		"source":1
	},
	{
		"sampler":2,
		"source":2
	}],
	"materials":[{
		"doubleSided":true,
		"pbrMetallicRoughness":{
			"baseColorTexture":{
				"index":0
			},
			"baseColorFactor":[0.1882352977991104,
			0.1882352977991104,
			0.1882352977991104,
			1.0],
			"metallicFactor":0.5,
			"roughnessFactor":0.20000000000000008
		},
		"normalTexture":{
			"index":1,
			"scale":1.0
		},
		"occlusionTexture":{
			"index":2,
			"strength":1.0
		},
		"emissiveFactor":[0.0,
		0.0,
		0.0],
		"alphaMode":"OPAQUE",
		"name":"Black.PBR"
	}],
	"animations":[{
		"samplers":[{
			"input":0,
			"interpolation":"LINEAR",
			"output":1
		},
		{
			"input":2,
			"interpolation":"LINEAR",
			"output":3
		},
		{
			"input":4,
			"interpolation":"LINEAR",
			"output":5
		}],
		"channels":[{
			"sampler":0,
			"target":{
				"node":0,
				"path":"translation"
			}
		},
		{
			"sampler":1,
			"target":{
				"node":0,
				"path":"rotation"
			}
		},
		{
			"sampler":2,
			"target":{
				"node":1,
				"path":"rotation"
			}
		}]
	}]
}